<?xml version="1.0" encoding="UTF-8"?>
<svg width="29px" height="13px" viewBox="0 0 29 13" version="1.1" xmlns="http://www.w3.org/2000/svg" xmlns:xlink="http://www.w3.org/1999/xlink">
    <!-- Generator: Sketch 51.3 (57544) - http://www.bohemiancoding.com/sketch -->
    <title>arrow</title>
    <desc>Created with Sketch.</desc>
    <defs></defs>
    <g id="Page-1" stroke="none" stroke-width="1" fill="none" fill-rule="evenodd">
        <g id="home2-copy-2" transform="translate(-482.000000, -7565.000000)" fill="#0074E1" fill-rule="nonzero">
            <g id="Group-2" transform="translate(361.000000, 7554.000000)">
                <path d="M150,17.380233 C150,17.1812811 149.901136,16.8828532 149.703409,16.7833772 L144.265909,11.3121992 C143.771591,10.9142954 143.178409,10.9142954 142.782955,11.2127233 C142.3875,11.5111511 142.288636,12.2074829 142.684091,12.6053867 L146.539773,16.4849493 L122.0875,16.4849493 C121.494318,16.4849493 121,16.8828532 121,17.4797089 C121,18.0765647 121.494318,18.4744686 122.0875,18.4744686 L146.539773,18.4744686 L142.684091,22.3540311 C142.288636,22.751935 142.3875,23.3487908 142.782955,23.7466946 C143.178409,24.1445985 143.969318,24.0451225 144.265909,23.6472187 L149.703409,18.1760407 C149.901136,17.8776128 150,17.6786609 150,17.380233 Z" id="arrow"></path>
            </g>
        </g>
    </g>
</svg>