<?xml version="1.0" encoding="UTF-8"?>
<svg width="16px" height="16px" viewBox="0 0 16 16" version="1.1" xmlns="http://www.w3.org/2000/svg" xmlns:xlink="http://www.w3.org/1999/xlink">
    <!-- Generator: Sketch 51.3 (57544) - http://www.bohemiancoding.com/sketch -->
    <title>full-screen</title>
    <desc>Created with Sketch.</desc>
    <defs></defs>
    <g id="Page-1" stroke="none" stroke-width="1" fill="none" fill-rule="evenodd">
        <g id="Artist_page" transform="translate(-978.000000, -1970.000000)" fill="#CFD1D3" fill-rule="nonzero">
            <path d="M993.998646,1970 L993.279926,1970 L988.768632,1970 L988.768632,1971.45938 L991.588021,1971.40887 L987.126808,1975.7365 L988.102699,1976.74132 L992.562558,1972.41635 L992.562558,1975.28327 L993.997293,1975.28327 L993.997293,1970.70444 L993.997293,1970 L993.998646,1970 Z M993.998646,1980.71673 L992.563912,1980.71673 L992.563912,1983.53315 L988.104052,1979.25735 L987.128162,1980.2635 L991.589375,1984.5898 L988.769986,1984.5898 L988.769986,1986 L993.281279,1986 L994,1986 L994,1985.29556 L994,1980.71673 L993.998646,1980.71673 Z M984.923272,1975.98638 L980.462059,1971.66008 L983.281448,1971.66008 L983.281448,1970.2512 L978.718721,1970.2512 L978,1970.2512 L978,1970.95564 L978,1975.53447 L979.437442,1975.53447 L979.437442,1972.66622 L983.948735,1976.99385 L984.923272,1975.98638 Z M984.923272,1980.01229 L983.950089,1979.05665 L979.438795,1983.33245 L979.438795,1980.51603 L978,1980.51603 L978,1985.04303 L978,1985.79797 L978.718721,1985.79797 L983.281448,1985.74747 L983.281448,1984.28809 L980.462059,1984.33727 L984.923272,1980.01229 Z" id="full-screen"></path>
        </g>
    </g>
</svg>