<?xml version="1.0" encoding="UTF-8"?>
<svg width="20px" height="20px" viewBox="0 0 20 20" version="1.1" xmlns="http://www.w3.org/2000/svg" xmlns:xlink="http://www.w3.org/1999/xlink">
    <!-- Generator: Sketch 51.3 (57544) - http://www.bohemiancoding.com/sketch -->
    <title>instagram</title>
    <desc>Created with Sketch.</desc>
    <defs></defs>
    <g id="Page-1" stroke="none" stroke-width="1" fill="none" fill-rule="evenodd">
        <g id="home2-copy-2" transform="translate(-327.000000, -7981.000000)" fill="#18162E">
            <g id="Group-8" transform="translate(317.000000, 7971.000000)">
                <path d="M15.9497143,10.6388571 C14.9362078,10.6850909 14.2432208,10.8450909 13.6385455,11.0809351 C13.0120519,11.3240519 12.4811429,11.6497662 11.9512727,12.1796364 C11.4214026,12.7084675 11.0956883,13.2398961 10.8525714,13.8663896 C10.6172468,14.4715844 10.4567273,15.1640519 10.4104935,16.1775584 C10.3637403,17.1931429 10.3533506,17.5178182 10.3533506,20.1037922 C10.3533506,22.6897662 10.3637403,23.0144416 10.4104935,24.0295065 C10.4567273,25.0435325 10.6172468,25.736 10.8525714,26.3417143 C11.0956883,26.9676883 11.4214026,27.4991169 11.9512727,28.0284675 C12.4811429,28.5572987 13.0120519,28.883013 13.6385455,29.1266494 C14.2447792,29.361974 14.9362078,29.523013 15.9497143,29.5687273 C16.9658182,29.614961 17.289974,29.6269091 19.8764675,29.6269091 C22.4624416,29.6269091 22.7871169,29.616 23.8021818,29.5687273 C24.8162078,29.523013 25.5081558,29.361974 26.1138701,29.1266494 C26.7398442,28.883013 27.2707532,28.5572987 27.8006234,28.0284675 C28.331013,27.4991169 28.6556883,26.9676883 28.8993247,26.3417143 C29.1346494,25.736 29.2962078,25.0435325 29.3414026,24.0295065 C29.3876364,23.0134026 29.3990649,22.6897662 29.3990649,20.1037922 C29.3990649,17.5178182 29.3876364,17.1931429 29.3414026,16.1775584 C29.2951688,15.1640519 29.1346494,14.4710649 28.8993247,13.8663896 C28.6556883,13.2404156 28.329974,12.708987 27.8006234,12.1796364 C27.2717922,11.6492468 26.7398442,11.3240519 26.1143896,11.0809351 C25.5081558,10.8450909 24.8162078,10.6840519 23.8032208,10.6388571 C22.7876364,10.5926234 22.462961,10.5811948 19.876987,10.5811948 C17.2904935,10.5811948 16.9658182,10.5915844 15.9497143,10.6388571 M16.0286753,27.8554805 C15.1003636,27.8128831 14.5959481,27.6585974 14.2603636,27.5276883 C13.8156883,27.3547013 13.4982857,27.1484675 13.1652987,26.8154805 C12.8312727,26.481974 12.625039,26.1656104 12.4525714,25.7204156 C12.3221818,25.3858701 12.1673766,24.8804156 12.1252987,23.9521039 C12.0790649,22.9484675 12.0691948,22.6466494 12.0691948,20.1037922 C12.0691948,17.5609351 12.0795844,17.2601558 12.1252987,16.256 C12.1673766,15.3266494 12.3232208,14.8232727 12.4525714,14.4871688 C12.6260779,14.0424935 12.8317922,13.7250909 13.1652987,13.3915844 C13.4977662,13.0580779 13.8151688,12.8518442 14.2603636,12.6793766 C14.5959481,12.548987 15.1003636,12.3941818 16.0286753,12.3521039 C17.0328312,12.3058701 17.3341299,12.296 19.8764675,12.296 C22.4182857,12.296 22.7201039,12.3063896 23.7247792,12.3521039 C24.6530909,12.3941818 25.156987,12.550026 25.4930909,12.6793766 C25.9382857,12.8518442 26.2551688,13.0585974 26.5881558,13.3915844 C26.9221818,13.7245714 27.1278961,14.0424935 27.3014026,14.4871688 C27.4317922,14.8222338 27.5860779,15.3266494 27.6281558,16.256 C27.6743896,17.2601558 27.6837403,17.5609351 27.6837403,20.1037922 C27.6837403,22.6466494 27.6743896,22.9474286 27.6281558,23.9521039 C27.5860779,24.8804156 27.4312727,25.3853506 27.3014026,25.7204156 C27.1278961,26.1656104 26.9216623,26.4824935 26.5881558,26.8154805 C26.2556883,27.1479481 25.9382857,27.3547013 25.4930909,27.5276883 C25.158026,27.6585974 24.6530909,27.8134026 23.7247792,27.8554805 C22.7206234,27.9011948 22.4193247,27.9105455 19.8764675,27.9105455 C17.3330909,27.9105455 17.0323117,27.9011948 16.0286753,27.8554805 M23.8172468,15.0201558 C23.8172468,15.6508052 24.3284156,16.163013 24.9595844,16.1635325 C25.5907532,16.1635325 26.1024416,15.6518442 26.1024416,15.0211948 C26.102961,14.390026 25.5917922,13.8778182 24.9606234,13.8778182 L24.9601039,13.8778182 C24.3289351,13.8778182 23.8177662,14.3895065 23.8172468,15.0201558 M14.9865974,20.1037922 C14.9865974,22.8045714 17.1751688,24.9936623 19.8764675,24.9936623 C22.5772468,24.9936623 24.7663377,22.8045714 24.7663377,20.1037922 C24.7663377,17.403013 22.5772468,15.2139221 19.8764675,15.2139221 C17.1751688,15.2139221 14.9865974,17.403013 14.9865974,20.1037922 M16.7019221,20.1037922 C16.7019221,18.3510649 18.1232208,16.9292468 19.8764675,16.9292468 C21.6297143,16.9292468 23.051013,18.3510649 23.051013,20.1037922 C23.051013,21.857039 21.6297143,23.2783377 19.8764675,23.2783377 C18.1232208,23.2783377 16.7019221,21.857039 16.7019221,20.1037922" id="instagram"></path>
            </g>
        </g>
    </g>
</svg>