<?xml version="1.0" encoding="UTF-8"?>
<svg width="33px" height="22px" viewBox="0 0 33 22" version="1.1" xmlns="http://www.w3.org/2000/svg" xmlns:xlink="http://www.w3.org/1999/xlink">
    <!-- Generator: Sketch 51.3 (57544) - http://www.bohemiancoding.com/sketch -->
    <title>spotify</title>
    <desc>Created with Sketch.</desc>
    <defs></defs>
    <g id="Page-1" stroke="none" stroke-width="1" fill="none" fill-rule="evenodd">
        <g id="Artist_page" transform="translate(-1217.000000, -600.000000)" fill="#FFFFFF" fill-rule="nonzero">
            <g id="spotify" transform="translate(1210.000000, 588.000000)">
                <path d="M31.5758291,33.6474656 C26.1749505,30.3465198 19.3769469,29.6008518 11.3710719,31.4297182 C10.5996031,31.606605 9.83059812,31.122948 9.65484126,30.3517302 C9.47823692,29.5802613 9.95968109,28.8112564 10.7330803,28.6354995 C19.494228,26.6325085 27.0093209,27.4946258 33.0715437,31.1990167 C33.7471695,31.6137458 33.9613766,32.495355 33.5466789,33.1709651 C33.1338959,33.8479719 32.2511881,34.0602644 31.5758291,33.6474656 Z M33.8954776,27.4992869 C27.7146083,23.6998689 18.2896367,22.5993601 10.9772473,24.8190536 C10.0288915,25.1055001 9.02727046,24.5710417 8.7394429,23.6243495 C8.45381249,22.6759938 8.98855341,21.6762874 9.93524557,21.3879105 C18.2880045,18.8535057 28.6717369,20.0811514 35.7712846,24.443889 C36.6144593,24.9629674 36.8808489,26.0670387 36.3617706,26.9090834 C35.8418762,27.7527917 34.7383541,28.0175491 33.8954776,27.4992869 Z M9.88386349,17.7279963 C8.74739974,18.0726675 7.54555489,17.4310976 7.20115054,16.2946182 C6.85674618,15.1576052 7.49776673,13.9565764 8.63506225,13.6110735 C16.7593169,11.1447805 30.2649582,11.621281 38.7992337,16.6876425 C39.821461,17.2943246 40.1568099,18.6145334 39.5509282,19.6353953 C38.94671,20.6576226 37.622923,20.9946037 36.6040071,20.3876548 C29.1899835,15.9848348 16.9611728,15.5800086 9.88386349,17.7279963 Z"></path>
            </g>
        </g>
    </g>
</svg>