<?xml version="1.0" encoding="UTF-8"?>
<svg width="20px" height="17px" viewBox="0 0 20 17" version="1.1" xmlns="http://www.w3.org/2000/svg" xmlns:xlink="http://www.w3.org/1999/xlink">
    <!-- Generator: Sketch 51.3 (57544) - http://www.bohemiancoding.com/sketch -->
    <title>twitter</title>
    <desc>Created with Sketch.</desc>
    <defs></defs>
    <g id="Page-1" stroke="none" stroke-width="1" fill="none" fill-rule="evenodd">
        <g id="home2-copy-2" transform="translate(-383.000000, -7983.000000)" fill="#18162E">
            <g id="Group-7" transform="translate(372.000000, 7971.000000)">
                <path d="M30.546961,12.6995325 C29.775013,13.1681039 28.9215065,13.5094026 28.0103377,13.6917403 C27.2841039,12.8964156 26.2461818,12.3997922 25.0970909,12.3997922 C22.8944935,12.3997922 21.106961,14.2325195 21.106961,16.4932987 C21.106961,16.8138182 21.1412468,17.1255065 21.2092987,17.4252468 C17.8924156,17.2543377 14.9516364,15.6262857 12.9817662,13.1468052 C12.6373506,13.7535584 12.440987,14.4574545 12.440987,15.2070649 C12.440987,16.6268052 13.1459221,17.8797922 14.2170909,18.6138182 C13.5641039,18.5940779 12.946961,18.4075844 12.4082597,18.1031688 L12.4082597,18.1535584 C12.4082597,20.1369351 13.7843636,21.792 15.6113766,22.1670649 C15.2768312,22.2626494 14.9241039,22.310961 14.5599481,22.310961 C14.3028052,22.310961 14.0513766,22.286026 13.8082597,22.2382338 C14.3168312,23.8636883 15.7900779,25.0481039 17.5370909,25.0792727 C16.1708571,26.1774545 14.4492987,26.8325195 12.5796883,26.8325195 C12.2576104,26.8325195 11.9391688,26.8138182 11.626961,26.7764156 C13.3937143,27.9353766 15.4929351,28.6138182 17.7459221,28.6138182 C25.0892987,28.6138182 29.1033247,22.3774545 29.1033247,16.9686234 C29.1033247,16.7904416 29.1002078,16.6122597 29.0929351,16.4377143 C29.8731948,15.8605714 30.5500779,15.1400519 31.0835844,14.3192727 C30.3687792,14.644987 29.5989091,14.8652468 28.7916364,14.9634286 C29.6160519,14.4574545 30.2487792,13.6553766 30.546961,12.6995325" id="twitter"></path>
            </g>
        </g>
    </g>
</svg>