<?xml version="1.0" encoding="UTF-8"?>
<svg width="22px" height="17px" viewBox="0 0 22 17" version="1.1" xmlns="http://www.w3.org/2000/svg" xmlns:xlink="http://www.w3.org/1999/xlink">
    <!-- Generator: Sketch 51.3 (57544) - http://www.bohemiancoding.com/sketch -->
    <title>volume</title>
    <desc>Created with Sketch.</desc>
    <defs></defs>
    <g id="Page-1" stroke="none" stroke-width="1" fill="none" fill-rule="evenodd">
        <g id="Artist_page" transform="translate(-924.000000, -1969.000000)" fill="#0074E1" fill-rule="nonzero">
            <path d="M942.379853,1969.00033 L941.407744,1969.94415 C943.397853,1971.87633 944.625021,1974.54291 944.625021,1977.50017 C944.625021,1980.45743 943.398025,1983.124 941.407744,1985.05619 L942.379853,1986 C944.617803,1983.82719 946,1980.8172 946,1977.5 C946,1974.18297 944.617803,1971.17281 942.379853,1969 L942.379853,1969.00033 Z M933.453149,1969.4906 C933.350026,1969.4906 933.196372,1969.55734 933.093249,1969.65747 L927.625475,1974.32981 C927.522351,1974.41325 927.317136,1974.49668 927.179638,1974.49668 L924.257808,1974.49668 C924.120311,1974.49668 924,1974.61349 924,1974.74699 L924,1980.25368 C924,1980.38718 924.120311,1980.50399 924.257808,1980.50399 L927.179638,1980.50399 C927.317136,1980.50399 927.522351,1980.57073 927.625475,1980.67085 L933.093249,1985.3432 C933.196372,1985.42664 933.367213,1985.51007 933.453149,1985.51007 C933.539085,1985.51007 933.625021,1985.39326 933.625021,1985.25977 L933.625021,1969.7409 C933.625021,1969.60741 933.556273,1969.4906 933.453149,1969.4906 Z M939.458024,1971.83728 L938.485914,1972.7811 C939.737317,1973.99607 940.500086,1975.66143 940.500086,1977.50033 C940.500086,1979.33924 939.731645,1981.01995 938.485914,1982.2144 L939.452696,1983.16355 C940.956923,1981.72147 941.875064,1979.69967 941.875064,1977.50033 C941.875064,1975.30099 940.956579,1973.29205 939.458024,1971.83712 L939.458024,1971.83728 Z M936.525367,1974.66889 L935.569241,1975.62839 C936.074718,1976.10597 936.374979,1976.7606 936.374979,1977.5005 C936.374979,1978.24023 936.074889,1978.89503 935.569241,1979.37261 L936.525367,1980.33211 C937.291745,1979.60823 937.749957,1978.59633 937.749957,1977.5005 C937.749957,1976.40467 937.291745,1975.39294 936.525367,1974.66889 Z" id="volume"></path>
        </g>
    </g>
</svg>